<svg width="17" height="18" viewBox="0 0 17 18" fill="none" xmlns="http://www.w3.org/2000/svg">
<path d="M12.2456 15.162C12.3149 15.1621 12.3835 15.1485 12.4474 15.122C12.5114 15.0955 12.5696 15.0566 12.6185 15.0075C14.4293 13.1967 14.4293 10.2504 12.6185 8.43959C12.4125 8.23368 12.0786 8.23368 11.8727 8.43959C11.6668 8.64549 11.6668 8.9794 11.8727 9.18535C13.2723 10.5849 13.2723 12.8622 11.8727 14.2618C11.6668 14.4677 11.6668 14.8016 11.8727 15.0075C11.9216 15.0566 11.9797 15.0955 12.0437 15.122C12.1077 15.1485 12.1763 15.1621 12.2456 15.162ZM10.2673 13.5353C10.3366 13.5354 10.4052 13.5218 10.4692 13.4953C10.5332 13.4688 10.5913 13.4299 10.6402 13.3808C11.554 12.467 11.554 10.9801 10.6402 10.0662C10.4343 9.86034 10.1004 9.86034 9.89444 10.0662C9.6885 10.2722 9.6885 10.6061 9.89444 10.812C10.3971 11.3146 10.3971 12.1325 9.89444 12.6351C9.6885 12.841 9.6885 13.1749 9.89444 13.3808C9.94336 13.4299 10.0015 13.4688 10.0655 13.4953C10.1295 13.5218 10.1981 13.5354 10.2673 13.5353Z" fill="#244886"/>
<path d="M14.2318 16.7449C14.3011 16.745 14.3697 16.7314 14.4337 16.7049C14.4977 16.6784 14.5558 16.6395 14.6047 16.5904C17.288 13.9071 17.288 9.54101 14.6047 6.85768C14.3988 6.65177 14.0649 6.65177 13.8589 6.85768C13.653 7.06358 13.653 7.39749 13.8589 7.60344C16.131 9.87556 16.131 13.5726 13.8589 15.8447C13.653 16.0506 13.653 16.3845 13.8589 16.5904C13.9079 16.6395 13.966 16.6784 14.03 16.7049C14.094 16.7314 14.1626 16.745 14.2318 16.7449ZM0.529367 18C0.730284 18 0.922198 17.8846 1.01026 17.6896L1.72126 16.1153C1.83157 15.871 2.07693 15.7159 2.34387 15.7208C3.28014 15.7372 4.43005 15.7545 5.01687 15.7429C5.64816 15.7304 6.0161 15.4624 6.21361 15.2397C6.48726 14.9313 6.6128 14.5099 6.56714 14.0532C6.5407 13.7886 6.61221 13.6984 6.75462 13.5189C6.86234 13.3831 6.99642 13.2141 7.06111 12.9734C7.15927 12.608 7.01587 12.2098 6.69581 11.9588C6.6815 11.9476 6.66659 11.9371 6.65119 11.9274L5.5916 11.2609L7.17523 10.6601C7.18872 10.655 7.20201 10.6493 7.21506 10.6431C7.59334 10.4628 7.80272 10.0494 7.72429 9.63776L7.51944 8.56238C7.50899 8.50864 7.50963 8.45334 7.52132 8.39986C7.533 8.34638 7.55549 8.29584 7.58739 8.25136C7.61896 8.20661 7.65932 8.16879 7.70602 8.1402C7.75272 8.11161 7.80477 8.09287 7.85897 8.08511L8.90148 7.93186C9.04334 7.9111 9.1779 7.85574 9.29329 7.77065C9.40868 7.68557 9.50135 7.57339 9.56312 7.444C9.62507 7.31474 9.65424 7.17221 9.64806 7.02901C9.64188 6.8858 9.60053 6.74632 9.52768 6.62287L7.54064 3.25009C7.23837 2.73706 7.11912 2.13002 7.20483 1.54078L7.3412 0.603311C7.3831 0.315104 7.18349 0.0474624 6.89525 0.00555665C6.607 -0.0363491 6.3394 0.163301 6.29749 0.451508L6.16112 1.38897C6.04096 2.21514 6.20816 3.06622 6.63193 3.78548L8.48295 6.92739L7.70552 7.04168C7.30797 7.10018 6.96081 7.3127 6.72794 7.64007C6.49507 7.96744 6.40823 8.36509 6.4834 8.75975L6.66722 9.72481L4.88743 10.4C4.57362 10.5191 4.35794 10.8005 4.32465 11.1345C4.29132 11.4685 4.4471 11.7871 4.73123 11.9658L6.00338 12.766C5.98119 12.7968 5.95318 12.8321 5.92836 12.8634C5.74892 13.0896 5.44865 13.4681 5.51766 14.1582C5.52698 14.2511 5.52723 14.4242 5.42464 14.5398C5.32009 14.6577 5.13383 14.6856 4.99602 14.6884C4.42674 14.6996 3.28945 14.6826 2.36232 14.6663C1.67288 14.6556 1.04394 15.0526 0.76006 15.6812L0.0490685 17.2555C-0.0708122 17.5209 0.047205 17.8333 0.312632 17.9531C0.380724 17.984 0.454613 18 0.529367 18Z" fill="#244886"/>
</svg>
